<svg width="495" height="334" viewBox="0 0 495 334" fill="none" xmlns="http://www.w3.org/2000/svg">
<g clip-path="url(#clip0_71_393)">
<path d="M33.3123 251.687C30.9618 251.687 28.6065 251.784 26.3063 251.979L25.9715 252.007C10.7145 253.353 -0.445316 261.16 0.0136564 270.168L0.102386 271.797C0.160899 272.826 0.223243 273.933 0.274558 275.161C0.302351 275.767 1.13065 276.232 2.16131 276.232H377.448C403.907 276.071 430.271 275.87 455.802 275.632C460.59 275.642 465.375 275.395 470.137 274.891C477.232 274.053 482.157 272.392 485.194 269.814H485.195C488.971 266.616 489.09 262.589 488.862 258.04C488.396 248.853 487.935 239.203 487.475 229.581C487.068 221.102 486.663 212.645 486.258 204.549C486.008 199.744 485.452 195.503 481.163 192.261C476.515 188.756 468.037 186.979 455.966 186.979C455.82 186.979 455.675 186.979 455.527 186.979C417.697 187.114 380.212 200.092 362.253 219.275C360.185 221.484 358.258 223.849 356.394 226.137C353.64 229.516 350.793 233.009 347.396 236.133C345.556 237.848 343.567 239.395 341.452 240.756C341.306 240.857 341.139 240.965 340.962 241.067C340.559 241.329 340.137 241.582 339.725 241.808C337.316 243.196 334.777 244.348 332.145 245.247L331.879 245.336C331.679 245.407 331.462 245.478 331.245 245.543C329.725 246.03 328.146 246.451 326.563 246.792C319.718 248.297 311.933 248.658 303.427 247.864C295.616 247.114 287.906 245.547 280.423 243.186C272.547 240.703 265.175 237.606 258.045 234.612C254.913 233.296 251.674 231.936 248.439 230.647C247.831 230.404 247.233 230.167 246.626 229.93C242.675 228.394 239.092 227.125 235.675 226.051C227.208 223.38 218.443 221.76 209.579 221.228C200.17 220.714 191.879 221.684 184.941 224.103C183.028 224.767 181.166 225.568 179.368 226.499C171.15 230.756 166.084 237.04 161.186 243.117C155.092 250.676 148.79 258.493 136.348 262.545C121.99 267.225 101.032 265.281 86.205 261.9C81.5433 260.836 76.8873 259.613 72.3844 258.43C70.5657 257.952 68.7458 257.477 66.9246 257.006C63.3458 256.084 60.4169 255.377 57.7072 254.781L56.8501 254.591C56.3734 254.488 55.8962 254.384 55.4104 254.286C52.1918 253.612 49.1947 253.081 46.2433 252.664L45.545 252.562C44.145 252.378 42.8362 252.225 41.5518 252.096L41.0392 252.046C38.5236 251.807 35.9204 251.687 33.3123 251.687Z" fill="#F2F2F2"/>
<path d="M421.381 261.741C431.941 252.246 447.647 247.472 460.823 252.796C447.308 260.283 436.882 272.298 431.391 286.715C429.294 292.283 427.542 298.693 422.383 301.674C419.173 303.529 415.179 303.62 411.58 302.724C407.981 301.829 404.682 300.034 401.428 298.257L400.502 298.236C404.658 284.673 410.821 271.235 421.381 261.741Z" fill="#E6E6E6"/>
<path d="M460.747 253.084C449.079 254.589 438.182 259.724 429.604 267.759C427.727 269.456 426.129 271.438 424.871 273.632C423.714 275.808 423.162 278.254 423.273 280.715C423.33 283.011 423.654 285.354 423.151 287.625C422.876 288.783 422.359 289.87 421.633 290.815C420.907 291.76 419.989 292.542 418.94 293.108C416.361 294.587 413.404 295.053 410.496 295.408C407.268 295.803 403.908 296.162 401.113 297.969C400.775 298.188 400.454 297.651 400.792 297.432C405.654 294.289 411.807 295.433 417.035 293.335C419.475 292.356 421.634 290.637 422.398 288.039C423.066 285.767 422.733 283.351 422.655 281.026C422.512 278.627 422.959 276.229 423.959 274.042C425.102 271.792 426.62 269.752 428.449 268.01C432.503 264.022 437.161 260.696 442.251 258.152C448.044 255.216 454.298 253.291 460.742 252.459C461.14 252.408 461.144 253.034 460.747 253.084H460.747Z" fill="white"/>
<path d="M432.215 265.01C431.059 263.391 430.517 261.415 430.687 259.434C430.856 257.454 431.726 255.598 433.14 254.198C433.428 253.916 433.881 254.348 433.593 254.631C432.274 255.932 431.464 257.66 431.31 259.505C431.155 261.349 431.667 263.188 432.752 264.689C432.988 265.016 432.449 265.334 432.215 265.01V265.01Z" fill="white"/>
<path d="M423.09 279.554C427.1 280.263 431.23 279.438 434.658 277.243C434.997 277.025 435.318 277.562 434.979 277.78C431.408 280.057 427.108 280.907 422.937 280.16C422.539 280.089 422.695 279.483 423.09 279.554Z" fill="white"/>
<path d="M448.096 256.043C448.413 256.763 448.903 257.392 449.524 257.876C450.144 258.359 450.876 258.681 451.652 258.813C452.05 258.88 451.894 259.485 451.498 259.419C450.642 259.27 449.834 258.913 449.148 258.38C448.461 257.848 447.915 257.155 447.558 256.364C447.518 256.292 447.507 256.208 447.527 256.128C447.548 256.049 447.597 255.98 447.667 255.935C447.738 255.893 447.823 255.881 447.904 255.901C447.984 255.922 448.053 255.973 448.096 256.043Z" fill="white"/>
<path d="M475.329 298.582C475.079 298.548 474.829 298.514 474.576 298.483C471.214 298.038 467.822 297.866 464.433 297.969C464.171 297.973 463.905 297.981 463.644 297.992C455.481 298.327 447.451 300.171 439.963 303.43C436.984 304.73 434.109 306.254 431.362 307.989C427.569 310.386 423.647 313.285 419.407 314.262C418.965 314.369 418.518 314.449 418.067 314.501L400.547 299.365C400.524 299.31 400.498 299.26 400.475 299.205L399.748 298.633C399.883 298.533 400.026 298.433 400.161 298.334C400.24 298.276 400.322 298.221 400.4 298.163C400.454 298.126 400.507 298.088 400.553 298.051C400.571 298.039 400.589 298.026 400.603 298.018C400.649 297.981 400.696 297.951 400.739 297.919C401.534 297.357 402.335 296.799 403.141 296.246C403.144 296.242 403.144 296.242 403.152 296.242C409.254 291.971 415.842 288.438 422.778 285.716C422.986 285.637 423.197 285.555 423.413 285.483C426.537 284.324 429.75 283.422 433.021 282.786C434.813 282.443 436.622 282.191 438.44 282.031C443.137 281.625 447.869 281.96 452.463 283.022C461.619 285.14 469.995 290.157 474.956 297.981C475.083 298.181 475.206 298.378 475.329 298.582Z" fill="#E6E6E6"/>
<path d="M475.098 298.77C464.873 292.962 453.074 290.516 441.377 291.779C438.854 292.007 436.382 292.629 434.054 293.624C431.817 294.667 429.9 296.288 428.504 298.32C427.163 300.188 426.009 302.254 424.237 303.764C423.318 304.524 422.249 305.081 421.099 305.4C419.95 305.718 418.745 305.791 417.566 305.612C414.615 305.244 411.972 303.84 409.436 302.377C406.62 300.753 403.721 299.021 400.399 298.785C399.996 298.757 400.064 298.135 400.466 298.164C406.246 298.575 410.468 303.184 415.908 304.649C418.447 305.333 421.208 305.258 423.385 303.642C425.29 302.23 426.482 300.101 427.823 298.198C429.156 296.196 430.96 294.55 433.078 293.405C435.348 292.294 437.791 291.578 440.303 291.285C445.946 290.537 451.673 290.679 457.272 291.705C463.669 292.841 469.824 295.061 475.471 298.268C475.82 298.466 475.445 298.968 475.098 298.77V298.77Z" fill="white"/>
<path d="M445.119 291.151C445.173 289.164 445.933 287.261 447.264 285.782C448.594 284.302 450.408 283.343 452.382 283.075C452.782 283.022 452.883 283.639 452.483 283.692C450.644 283.938 448.955 284.832 447.718 286.212C446.482 287.592 445.781 289.368 445.742 291.218C445.733 291.621 445.11 291.551 445.119 291.151V291.151Z" fill="white"/>
<path d="M429.059 297.283C431.833 300.258 435.629 302.08 439.69 302.387C440.092 302.417 440.024 303.038 439.622 303.008C435.397 302.681 431.451 300.777 428.571 297.675C428.297 297.379 428.786 296.989 429.059 297.283H429.059Z" fill="white"/>
<path d="M463.21 293.532C463.029 294.297 463.041 295.094 463.244 295.853C463.448 296.612 463.838 297.308 464.378 297.88C464.656 298.172 464.166 298.562 463.89 298.272C463.296 297.637 462.867 296.868 462.64 296.03C462.413 295.192 462.395 294.311 462.588 293.465C462.599 293.384 462.641 293.31 462.705 293.258C462.769 293.207 462.851 293.182 462.933 293.188C463.015 293.197 463.091 293.239 463.143 293.303C463.195 293.367 463.219 293.45 463.21 293.532Z" fill="white"/>
<path d="M144.946 271.183C153.592 258.098 169.06 248.632 184.636 250.669C172.269 262.427 164.469 278.171 162.616 295.115C161.925 301.653 161.839 308.995 157.152 313.615C154.236 316.49 149.99 317.696 145.891 317.737C141.792 317.778 137.763 316.774 133.787 315.777L132.791 316.012C133.455 300.352 136.299 284.269 144.946 271.183Z" fill="#E6E6E6"/>
<path d="M184.637 250.998C172.577 255.846 162.354 264.362 155.421 275.337C153.886 277.674 152.73 280.237 151.995 282.932C151.365 285.581 151.456 288.35 152.261 290.951C152.962 293.392 153.963 295.807 154.058 298.375C154.086 299.69 153.836 300.997 153.324 302.209C152.811 303.421 152.047 304.511 151.082 305.408C148.737 307.706 145.704 309.025 142.693 310.213C139.35 311.531 135.857 312.848 133.372 315.556C133.071 315.884 132.578 315.399 132.879 315.071C137.203 310.359 144.102 309.875 149.109 306.18C151.445 304.455 153.275 302.018 153.368 299.027C153.449 296.412 152.419 293.92 151.687 291.455C150.865 288.929 150.675 286.241 151.135 283.624C151.73 280.9 152.785 278.297 154.255 275.926C157.479 270.536 161.533 265.685 166.268 261.551C171.645 256.804 177.797 253.009 184.457 250.331C184.869 250.165 185.047 250.833 184.637 250.998L184.637 250.998Z" fill="white"/>
<path d="M157.444 271.672C155.757 270.262 154.626 268.298 154.256 266.133C153.885 263.968 154.298 261.742 155.42 259.852C155.648 259.471 156.253 259.807 156.025 260.189C154.976 261.947 154.592 264.02 154.941 266.036C155.291 268.051 156.351 269.876 157.93 271.18C158.273 271.464 157.785 271.954 157.444 271.672Z" fill="white"/>
<path d="M151.742 289.76C156.229 289.405 160.416 287.376 163.47 284.078C163.772 283.751 164.265 284.236 163.963 284.563C160.779 287.989 156.417 290.092 151.748 290.451C151.302 290.485 151.3 289.794 151.742 289.76H151.742Z" fill="white"/>
<path d="M171.93 257.674C172.469 258.356 173.169 258.893 173.968 259.238C174.767 259.583 175.638 259.724 176.505 259.65C176.95 259.61 176.952 260.301 176.51 260.341C175.552 260.418 174.59 260.261 173.706 259.882C172.823 259.503 172.047 258.914 171.444 258.166C171.382 258.101 171.346 258.014 171.346 257.923C171.345 257.832 171.379 257.744 171.441 257.678C171.505 257.613 171.593 257.576 171.685 257.576C171.776 257.575 171.865 257.61 171.93 257.674H171.93Z" fill="white"/>
<path d="M212.92 295.612C212.643 295.644 212.366 295.677 212.087 295.714C208.367 296.171 204.691 296.929 201.095 297.98C200.816 298.057 200.534 298.139 200.257 298.223C191.62 300.847 183.546 305.049 176.446 310.613C173.623 312.83 170.973 315.258 168.519 317.876C165.13 321.492 161.744 325.682 157.481 327.904C157.039 328.141 156.583 328.35 156.115 328.531L133.156 317.206C133.117 317.154 133.075 317.107 133.035 317.055L132.098 316.645C132.215 316.501 132.339 316.354 132.456 316.21C132.524 316.127 132.597 316.045 132.664 315.962C132.711 315.907 132.758 315.852 132.797 315.799C132.812 315.781 132.828 315.763 132.841 315.75C132.88 315.697 132.922 315.653 132.958 315.606C133.652 314.784 134.353 313.965 135.061 313.151C135.064 313.145 135.064 313.145 135.071 313.143C140.482 306.947 146.458 301.147 153.127 296.437C153.328 296.296 153.531 296.149 153.742 296.012C156.76 293.906 159.945 292.049 163.266 290.46C165.087 289.596 166.951 288.825 168.85 288.148C173.762 286.411 178.916 285.455 184.125 285.316C194.509 285.04 204.866 288.081 212.353 295.072C212.544 295.251 212.731 295.427 212.92 295.612Z" fill="#E6E6E6"/>
<path d="M212.723 295.877C200.168 292.503 186.867 293.162 174.708 297.76C172.073 298.703 169.604 300.055 167.39 301.766C165.289 303.502 163.691 305.768 162.764 308.328C161.851 310.698 161.192 313.228 159.718 315.335C158.948 316.403 157.959 317.296 156.819 317.956C155.678 318.615 154.41 319.027 153.099 319.164C149.84 319.589 146.622 318.821 143.501 317.96C140.037 317.005 136.453 315.958 132.835 316.627C132.396 316.708 132.296 316.025 132.733 315.944C139.029 314.779 144.83 318.537 151.058 318.594C153.963 318.621 156.895 317.774 158.774 315.442C160.417 313.402 161.098 310.794 162.001 308.387C162.869 305.876 164.34 303.615 166.286 301.802C168.404 299.984 170.818 298.539 173.422 297.53C179.249 295.163 185.413 293.725 191.688 293.268C198.846 292.708 206.048 293.373 212.982 295.236C213.411 295.351 213.15 295.991 212.723 295.877Z" fill="white"/>
<path d="M178.536 296.049C178.04 293.909 178.322 291.663 179.332 289.711C180.343 287.76 182.016 286.23 184.052 285.395C184.465 285.228 184.745 285.86 184.332 286.028C182.434 286.801 180.876 288.226 179.939 290.045C179.001 291.865 178.747 293.958 179.221 295.948C179.323 296.381 178.638 296.479 178.536 296.049H178.536Z" fill="white"/>
<path d="M163.069 307.066C166.865 309.478 171.433 310.373 175.861 309.574C176.3 309.494 176.401 310.178 175.962 310.257C171.352 311.08 166.601 310.139 162.656 307.621C162.28 307.38 162.695 306.827 163.069 307.066V307.066Z" fill="white"/>
<path d="M198.549 293.574C198.568 294.442 198.803 295.292 199.232 296.047C199.662 296.802 200.272 297.439 201.01 297.9C201.388 298.135 200.973 298.688 200.597 298.455C199.785 297.941 199.111 297.237 198.635 296.404C198.158 295.571 197.893 294.634 197.864 293.675C197.853 293.585 197.878 293.494 197.932 293.422C197.986 293.349 198.066 293.299 198.156 293.283C198.246 293.27 198.338 293.293 198.412 293.348C198.486 293.403 198.535 293.484 198.549 293.574V293.574Z" fill="white"/>
<path d="M206.484 173.077C207.058 172.507 207.499 171.819 207.778 171.061C208.056 170.303 208.165 169.493 208.095 168.688C208.026 167.884 207.781 167.104 207.377 166.404C206.973 165.705 206.42 165.102 205.757 164.638L214.794 121.001L205.044 124.07L197.774 166.285C197.067 167.448 196.812 168.828 197.058 170.166C197.303 171.503 198.032 172.704 199.106 173.541C200.179 174.378 201.523 174.793 202.883 174.708C204.243 174.622 205.524 174.042 206.484 173.077Z" fill="#FFB6B6"/>
<path d="M227.372 56.4339L221.333 51.8853C221.333 51.8853 216.005 51.5089 215.062 61.0951C214.118 70.6813 208.21 107.473 208.21 107.473L198.969 150.179L211.761 152.981L221.66 106.893L231.568 75.0971L227.372 56.4339Z" fill="#E6E6E6"/>
<path d="M222.771 135.456L193.801 112.981C193.35 112.63 193.057 112.115 192.985 111.549C192.914 110.983 193.071 110.411 193.422 109.96L213.133 84.6672C213.485 84.217 214.001 83.9244 214.569 83.8535C215.136 83.7827 215.709 83.9393 216.161 84.2892L245.131 106.764C245.582 107.115 245.876 107.63 245.947 108.197C246.018 108.763 245.861 109.334 245.51 109.785L225.799 135.078C225.447 135.528 224.931 135.821 224.363 135.892C223.796 135.963 223.223 135.806 222.771 135.456Z" fill="#3F3D56"/>
<path d="M222.613 133.131L196.1 112.562C195.7 112.251 195.439 111.793 195.376 111.29C195.313 110.787 195.453 110.28 195.764 109.88L213.633 86.9505C213.945 86.5508 214.403 86.291 214.907 86.228C215.411 86.1651 215.92 86.3042 216.321 86.6149L242.834 107.183C243.235 107.495 243.495 107.952 243.558 108.455C243.621 108.958 243.482 109.465 243.17 109.866L225.301 132.795C224.989 133.195 224.531 133.454 224.027 133.517C223.523 133.58 223.014 133.441 222.613 133.131Z" fill="white"/>
<path d="M199.575 111.979C199.475 111.901 199.41 111.787 199.394 111.661C199.379 111.535 199.413 111.408 199.491 111.308L208.506 99.7413C208.584 99.6412 208.698 99.5762 208.824 99.5604C208.887 99.5526 208.95 99.5572 209.011 99.5738C209.071 99.5904 209.128 99.6188 209.178 99.6573C209.227 99.6959 209.269 99.7438 209.3 99.7983C209.331 99.8528 209.351 99.913 209.359 99.9752C209.367 100.038 209.362 100.101 209.345 100.161C209.329 100.222 209.3 100.278 209.262 100.328L200.247 111.895C200.169 111.995 200.055 112.06 199.929 112.076C199.803 112.091 199.676 112.057 199.575 111.979Z" fill="#E4E4E4"/>
<path d="M201.07 113.138C200.969 113.06 200.904 112.946 200.888 112.82C200.873 112.694 200.908 112.567 200.985 112.467L210 100.9C210.078 100.8 210.192 100.735 210.318 100.719C210.444 100.704 210.572 100.739 210.672 100.816C210.772 100.894 210.837 101.009 210.853 101.134C210.869 101.26 210.834 101.387 210.756 101.487L201.742 113.054C201.664 113.154 201.549 113.219 201.423 113.235C201.297 113.25 201.17 113.216 201.07 113.138Z" fill="#E4E4E4"/>
<path d="M207.671 107.744C207.571 107.666 207.506 107.552 207.49 107.426C207.474 107.3 207.509 107.174 207.587 107.073L211.494 102.059C211.533 102.01 211.581 101.968 211.636 101.937C211.69 101.906 211.751 101.886 211.813 101.878C211.876 101.87 211.939 101.875 212 101.891C212.061 101.908 212.117 101.936 212.167 101.975C212.217 102.013 212.258 102.061 212.289 102.116C212.321 102.171 212.341 102.231 212.348 102.293C212.356 102.355 212.351 102.419 212.335 102.479C212.318 102.54 212.289 102.596 212.251 102.646L208.343 107.66C208.265 107.76 208.151 107.825 208.025 107.841C207.899 107.856 207.771 107.822 207.671 107.744Z" fill="#E4E4E4"/>
<path d="M209.685 117.584C209.585 117.506 209.519 117.391 209.504 117.266C209.488 117.14 209.523 117.013 209.601 116.913L223.831 98.6521C223.87 98.6026 223.918 98.5611 223.973 98.5301C224.027 98.4991 224.088 98.4791 224.15 98.4713C224.212 98.4635 224.276 98.468 224.336 98.4847C224.397 98.5013 224.454 98.5297 224.504 98.5682C224.553 98.6067 224.595 98.6546 224.626 98.7092C224.657 98.7637 224.677 98.8238 224.685 98.8861C224.693 98.9484 224.688 99.0116 224.671 99.0721C224.655 99.1326 224.626 99.1892 224.588 99.2388L210.357 117.5C210.279 117.6 210.164 117.665 210.038 117.68C209.912 117.696 209.785 117.661 209.685 117.584Z" fill="#E4E4E4"/>
<path d="M211.179 118.743C211.079 118.665 211.014 118.55 210.998 118.425C210.982 118.299 211.017 118.172 211.095 118.072L225.326 99.8111C225.364 99.7616 225.412 99.7201 225.467 99.6891C225.522 99.6581 225.582 99.6381 225.644 99.6303C225.707 99.6225 225.77 99.627 225.831 99.6437C225.891 99.6603 225.948 99.6887 225.998 99.7272C226.047 99.7657 226.089 99.8136 226.12 99.8682C226.151 99.9227 226.171 99.9829 226.179 100.045C226.187 100.107 226.182 100.171 226.166 100.231C226.149 100.292 226.12 100.348 226.082 100.398L211.851 118.659C211.773 118.759 211.658 118.824 211.532 118.839C211.406 118.855 211.279 118.82 211.179 118.743Z" fill="#E4E4E4"/>
<path d="M214.571 121.374C214.471 121.296 214.406 121.181 214.39 121.056C214.375 120.93 214.41 120.803 214.487 120.703L228.718 102.442C228.757 102.393 228.805 102.351 228.859 102.32C228.914 102.289 228.974 102.269 229.037 102.261C229.099 102.254 229.163 102.258 229.223 102.275C229.284 102.291 229.341 102.32 229.39 102.358C229.44 102.397 229.481 102.445 229.513 102.499C229.544 102.554 229.564 102.614 229.572 102.676C229.579 102.739 229.575 102.802 229.558 102.862C229.541 102.923 229.513 102.979 229.474 103.029L215.244 121.29C215.165 121.39 215.051 121.455 214.925 121.47C214.799 121.486 214.672 121.451 214.571 121.374Z" fill="#E4E4E4"/>
<path d="M216.064 122.533C215.964 122.455 215.898 122.34 215.883 122.215C215.867 122.089 215.902 121.962 215.98 121.862L230.21 103.601C230.249 103.552 230.297 103.51 230.352 103.479C230.406 103.448 230.467 103.428 230.529 103.42C230.591 103.413 230.655 103.417 230.715 103.434C230.776 103.45 230.833 103.479 230.882 103.517C230.932 103.556 230.974 103.604 231.005 103.658C231.036 103.713 231.056 103.773 231.064 103.835C231.072 103.898 231.067 103.961 231.05 104.021C231.034 104.082 231.005 104.138 230.967 104.188L216.736 122.449C216.658 122.549 216.543 122.614 216.417 122.629C216.291 122.645 216.164 122.61 216.064 122.533Z" fill="#E4E4E4"/>
<path d="M219.456 125.164C219.356 125.086 219.291 124.972 219.275 124.846C219.259 124.72 219.294 124.593 219.372 124.493L233.603 106.232C233.642 106.183 233.69 106.141 233.744 106.11C233.799 106.079 233.859 106.059 233.922 106.052C233.984 106.044 234.047 106.048 234.108 106.065C234.169 106.082 234.225 106.11 234.275 106.148C234.325 106.187 234.366 106.235 234.397 106.289C234.428 106.344 234.449 106.404 234.456 106.466C234.464 106.529 234.46 106.592 234.443 106.652C234.426 106.713 234.398 106.769 234.359 106.819L220.128 125.08C220.05 125.18 219.936 125.245 219.81 125.261C219.684 125.276 219.557 125.241 219.456 125.164Z" fill="#E4E4E4"/>
<path d="M220.95 126.323C220.85 126.245 220.785 126.131 220.769 126.005C220.754 125.879 220.788 125.752 220.866 125.652L235.097 107.391C235.175 107.292 235.29 107.227 235.416 107.212C235.541 107.196 235.668 107.231 235.768 107.309C235.868 107.386 235.934 107.5 235.949 107.626C235.965 107.751 235.931 107.878 235.853 107.978L221.623 126.239C221.544 126.339 221.43 126.404 221.304 126.42C221.178 126.435 221.051 126.4 220.95 126.323Z" fill="#E4E4E4"/>
<path d="M197.165 147.53C197.274 147.53 197.362 147.442 197.362 147.334C197.362 147.225 197.274 147.138 197.165 147.138C197.057 147.138 196.969 147.225 196.969 147.334C196.969 147.442 197.057 147.53 197.165 147.53Z" fill="white"/>
<path d="M225.82 12.3351C225.128 16.043 223.994 19.6548 222.442 23.0935C213.552 41.8578 238.869 35.7416 247.916 35.7416C257.808 35.7416 267.273 40.9316 265.827 17.8708C265.21 8.02027 257.808 0 247.916 0C239.467 0 227.587 3.74716 225.82 12.3351Z" fill="#2F2E41"/>
<path d="M257.138 287.539H248.71L244.699 255.104H257.138V287.539Z" fill="#FFB6B6"/>
<path d="M261.586 302.109H255.542L254.464 296.416L251.7 302.109H235.67C234.902 302.109 234.153 301.864 233.534 301.41C232.916 300.956 232.458 300.316 232.23 299.584C232.001 298.852 232.013 298.066 232.263 297.341C232.514 296.617 232.99 295.991 233.623 295.555L246.424 286.734V280.978L259.889 281.78L261.586 302.109Z" fill="#2F2E41"/>
<path d="M307.208 276.927L300.444 281.945L277.828 258.306L287.81 250.899L307.208 276.927Z" fill="#FFB6B6"/>
<path d="M319.492 285.97L314.642 289.569L310.371 285.642L311.559 291.856L298.695 301.4C298.079 301.858 297.332 302.107 296.563 302.11C295.795 302.114 295.045 301.873 294.424 301.422C293.803 300.971 293.343 300.333 293.11 299.602C292.878 298.872 292.886 298.086 293.132 297.36L298.129 282.66L294.687 278.041L305.971 270.668L319.492 285.97Z" fill="#2F2E41"/>
<path d="M229.533 138.263L269.541 132.046L261.585 108.165H229.533V138.263Z" fill="#FFB6B6"/>
<path d="M266.95 120.193C266.95 120.193 282.941 133.977 275.563 173.273L266.555 211.776L291.096 254.286L278.618 261.077L248.376 219.139L234.537 186.751L227.217 129.988L266.95 120.193Z" fill="#2F2E41"/>
<path d="M242.165 195.981L241.203 210.843L244.019 254.852L257.997 259.654L260.644 214.562L242.165 195.981Z" fill="#2F2E41"/>
<path d="M237.866 40.6878L253.331 41.2898L259.494 51.4977L273.556 54.2367L265.161 96.6093L266.705 120.727L252.703 120.642C242.612 120.581 232.854 124.239 225.299 130.914L225.718 99.607L219.695 76.2366L221.049 51.7313L232.361 50.3204L237.866 40.6878Z" fill="#E6E6E6"/>
<path d="M246.434 35.7372C254.472 35.7372 260.989 29.2354 260.989 21.2151C260.989 13.1948 254.472 6.69309 246.434 6.69309C238.395 6.69309 231.879 13.1948 231.879 21.2151C231.879 29.2354 238.395 35.7372 246.434 35.7372Z" fill="#FFB6B6"/>
<path d="M236.55 6.41193C239.101 4.86058 242.022 4.02138 245.009 3.9821C247.996 3.94281 250.938 4.70487 253.529 6.1886C256.119 7.67232 258.263 9.82322 259.735 12.4164C261.207 15.0095 261.954 17.9497 261.898 20.9295C254.482 22.7874 246.69 24.2091 238.781 21.3739L236.913 16.8129L235.812 21.3773C233.403 22.3595 230.989 23.1906 228.574 21.3678C228.475 18.3964 229.16 15.4512 230.56 12.8267C231.96 10.2022 234.025 7.99022 236.55 6.41193Z" fill="#2F2E41"/>
<path d="M270.866 150.006L272.828 167.771C272.964 168.215 273.24 168.603 273.614 168.878C273.988 169.154 274.44 169.302 274.905 169.302H283.949C284.414 169.302 284.867 169.154 285.241 168.878C285.614 168.603 285.89 168.215 286.027 167.771L287.652 154.155C288.121 154.384 288.638 154.499 289.16 154.491C289.683 154.482 290.195 154.35 290.656 154.105C291.118 153.86 291.514 153.509 291.813 153.081C292.111 152.654 292.304 152.161 292.375 151.645C292.446 151.129 292.393 150.603 292.221 150.111C292.048 149.619 291.761 149.175 291.383 148.815C291.005 148.455 290.547 148.19 290.046 148.041C289.545 147.893 289.017 147.865 288.503 147.96C288.3 147.721 288.047 147.529 287.763 147.397C287.478 147.266 287.168 147.198 286.854 147.199H272.943C272.603 147.199 272.268 147.279 271.964 147.432C271.66 147.585 271.397 147.806 271.195 148.079C270.993 148.352 270.858 148.669 270.8 149.003C270.743 149.338 270.766 149.681 270.866 150.006ZM287.936 153.234L288.931 150.006C289.046 149.633 289.058 149.236 288.964 148.858C289.007 148.855 289.047 148.845 289.09 148.845C289.715 148.845 290.314 149.093 290.756 149.534C291.198 149.975 291.446 150.573 291.446 151.196C291.446 151.82 291.198 152.418 290.756 152.859C290.314 153.3 289.715 153.548 289.09 153.548C288.684 153.545 288.286 153.437 287.936 153.234Z" fill="#6C63FF"/>
<path d="M284.504 169.315C283.933 168.742 283.495 168.052 283.22 167.292C282.946 166.533 282.841 165.722 282.915 164.918C282.988 164.114 283.237 163.335 283.645 162.638C284.052 161.94 284.608 161.34 285.273 160.88L276.459 117.198L286.193 120.316L293.248 162.567C293.949 163.733 294.197 165.115 293.944 166.451C293.692 167.787 292.957 168.985 291.88 169.816C290.802 170.648 289.455 171.056 288.096 170.964C286.737 170.871 285.458 170.285 284.504 169.315Z" fill="#FFB6B6"/>
<path d="M267.518 58.7853L273.557 54.2367C273.557 54.2367 278.885 53.8603 279.829 63.4465C280.772 73.0327 286.68 109.824 286.68 109.824L295.922 152.531L283.129 155.332L273.231 109.245L263.322 77.4485L267.518 58.7853Z" fill="#E6E6E6"/>
<path d="M215.393 98.5492C217.281 98.5492 218.812 97.022 218.812 95.1382C218.812 93.2543 217.281 91.7272 215.393 91.7272C213.505 91.7272 211.975 93.2543 211.975 95.1382C211.975 97.022 213.505 98.5492 215.393 98.5492Z" fill="#6C63FF"/>
<path d="M106.376 327.11L113.501 327.109L116.89 299.69L106.375 299.691L106.376 327.11Z" fill="#FFB6B6"/>
<path d="M104.559 324.788L106.564 324.788L114.393 321.612L118.59 324.788H118.59C120.962 324.788 123.236 325.728 124.913 327.401C126.589 329.074 127.532 331.343 127.532 333.709V333.999L104.559 334L104.559 324.788Z" fill="#2F2E41"/>
<path d="M133.986 322.63L140.936 324.196L150.296 298.195L140.038 295.884L133.986 322.63Z" fill="#FFB6B6"/>
<path d="M132.727 319.966L134.683 320.407L143.021 319.029L146.413 323.05L146.414 323.05C148.727 323.571 150.738 324.988 152.004 326.988C153.27 328.989 153.688 331.409 153.166 333.717L153.102 334L130.693 328.952L132.727 319.966Z" fill="#2F2E41"/>
<path d="M93.334 186.071L99.7766 258.091C99.7766 258.091 97.3626 301.329 105.152 316.544H116.449L122.042 254.143L122.745 212.259L146.964 247.595L131.538 315.523L145.442 316.764L170.474 243.045L142.973 173.841L93.334 186.071Z" fill="#2F2E41"/>
<path d="M100.082 71.3813C109.258 71.3813 116.697 63.9592 116.697 54.8036C116.697 45.648 109.258 38.2259 100.082 38.2259C90.9057 38.2259 83.4668 45.648 83.4668 54.8036C83.4668 63.9592 90.9057 71.3813 100.082 71.3813Z" fill="#FFB8B8"/>
<path d="M129.289 87.1791L115.659 81.3436L109.023 74.3213L92.4463 76.9887L88.0481 84.5129L73.8105 97.7218L90.4915 172.975L89.9865 189.411C89.9865 189.411 100.663 194.207 146.964 183.165C147.519 183.033 146.357 182.453 146.357 182.453L129.289 87.1791Z" fill="#3F3D56"/>
<path d="M82.8043 64.2102C82.6885 64.0526 82.5739 63.8936 82.4604 63.7333C82.4147 63.8296 82.3784 63.929 82.3262 64.023L82.8043 64.2102Z" fill="#2F2E41"/>
<path d="M116.609 42.6777C115.499 40.2637 113.518 38.355 111.062 37.3308C108.627 36.3511 105.906 36.3534 103.474 37.3375C101.277 35.9528 98.8364 34.8551 96.2661 34.7191C93.6958 34.5831 90.9783 35.5346 89.3943 37.6289C89.0406 38.1817 88.6389 38.7024 88.1938 39.185C86.9205 40.3615 84.9856 40.1918 83.2933 39.9512C84.0523 40.6003 84.8115 41.2494 85.571 41.8985C84.6522 42.138 83.7333 42.3775 82.8143 42.617C83.8866 43.2658 84.9588 43.9147 86.031 44.5636C82.9181 46.4278 81.5033 50.4965 81.877 54.1919C82.2306 57.6905 83.9235 60.8897 85.9472 63.7333C86.7545 62.0335 86.5806 59.9996 86.5673 58.0852C86.5534 56.0625 86.912 53.7655 88.5365 52.635C89.6324 51.8724 91.0416 51.8384 92.363 51.8456C99.0287 51.8821 105.687 52.2968 112.306 53.0878C113.204 53.1266 114.079 53.38 114.859 53.8267C116.322 54.823 116.608 56.8789 116.755 58.6826C117.528 55.7044 117.906 52.6379 117.88 49.5615C117.945 47.2033 117.512 44.8579 116.609 42.6777Z" fill="#2F2E41"/>
<path d="M121.782 236.558C136.225 236.558 147.933 224.876 147.933 210.466C147.933 196.055 136.225 184.373 121.782 184.373C107.339 184.373 95.6309 196.055 95.6309 210.466C95.6309 224.876 107.339 236.558 121.782 236.558Z" fill="white"/>
<path d="M121.781 183.794C120.437 183.794 119.095 183.895 117.765 184.095C117.085 184.194 116.423 184.321 115.766 184.478C110.942 185.587 106.521 188.012 102.998 191.483C99.4743 194.953 96.9864 199.332 95.8117 204.13C94.6371 208.929 94.8219 213.959 96.3454 218.659C97.869 223.359 100.671 227.544 104.44 230.748C104.888 231.125 105.341 231.49 105.811 231.838C109.204 234.362 113.149 236.046 117.322 236.751C121.494 237.457 125.775 237.163 129.811 235.896C133.848 234.628 137.525 232.422 140.54 229.459C143.556 226.496 145.823 222.862 147.155 218.854C148.487 214.846 148.846 210.58 148.203 206.407C147.56 202.233 145.932 198.272 143.455 194.849C140.978 191.426 137.721 188.638 133.953 186.716C130.185 184.794 126.013 183.793 121.781 183.794V183.794ZM121.781 235.978C116.344 235.984 111.048 234.25 106.672 231.032C106.195 230.684 105.736 230.325 105.289 229.942C101.617 226.852 98.8924 222.791 97.4278 218.227C95.9633 213.662 95.8178 208.778 97.0081 204.135C98.1984 199.491 100.676 195.277 104.158 191.974C107.639 188.672 111.983 186.415 116.691 185.463C117.341 185.33 117.992 185.226 118.655 185.145C119.692 185.016 120.736 184.952 121.781 184.953C128.563 184.953 135.067 187.641 139.862 192.426C144.657 197.21 147.351 203.699 147.351 210.466C147.351 217.232 144.657 223.721 139.862 228.506C135.067 233.29 128.563 235.978 121.781 235.978Z" fill="#3F3D56"/>
<path d="M108.955 205.247H134.609C135.549 205.247 136.311 204.487 136.311 203.549V203.466C136.311 202.528 135.549 201.768 134.609 201.768H108.955C108.016 201.768 107.254 202.528 107.254 203.466V203.549C107.254 204.487 108.016 205.247 108.955 205.247Z" fill="#6C63FF"/>
<path d="M108.955 212.205H134.609C135.549 212.205 136.311 211.445 136.311 210.507V210.424C136.311 209.486 135.549 208.726 134.609 208.726H108.955C108.016 208.726 107.254 209.486 107.254 210.424V210.507C107.254 211.445 108.016 212.205 108.955 212.205Z" fill="#6C63FF"/>
<path d="M108.955 219.163H134.609C135.549 219.163 136.311 218.403 136.311 217.465V217.382C136.311 216.444 135.549 215.684 134.609 215.684H108.955C108.016 215.684 107.254 216.444 107.254 217.382V217.465C107.254 218.403 108.016 219.163 108.955 219.163Z" fill="#6C63FF"/>
<path d="M414.355 326.224L406.884 326.224L403.33 297.474L414.356 297.474L414.355 326.224Z" fill="#9E616A"/>
<path d="M379.012 326.224L371.542 326.224L367.988 297.474L379.014 297.474L379.012 326.224Z" fill="#9E616A"/>
<path d="M379.275 334L356.303 333.999V333.709C356.303 331.343 357.245 329.074 358.922 327.401C360.599 325.728 362.873 324.788 365.244 324.788H365.245L369.441 321.612L377.271 324.788L379.276 324.788L379.275 334Z" fill="#2F2E41"/>
<path d="M415.576 334L392.604 333.999V333.709C392.604 331.343 393.546 329.074 395.223 327.401C396.9 325.728 399.174 324.788 401.545 324.788H401.546L405.742 321.612L413.571 324.788L415.577 324.788L415.576 334Z" fill="#2F2E41"/>
<path d="M371.684 156.071L360.33 225.048L363.42 235.327L359.365 242.607L365.319 306.54L362.902 311.849L369.655 316.004H383.396L384.126 258.125L387.52 249.628V244.944L394.43 209.651L395.702 259.077L397.712 267.588L396.024 273.648L398.23 277.894L404.09 317.266H419.498L418.306 308.106C419.648 307.428 420.727 306.324 421.372 304.968C422.016 303.612 422.191 302.08 421.869 300.614L420.985 296.6L422.996 284.728L426.657 218.502L425.625 165.065L407.6 151.312L371.684 156.071Z" fill="#2F2E41"/>
<path d="M397.712 67.4953C405.618 67.4953 412.028 61.1004 412.028 53.212C412.028 45.3235 405.618 38.9286 397.712 38.9286C389.806 38.9286 383.396 45.3235 383.396 53.212C383.396 61.1004 389.806 67.4953 397.712 67.4953Z" fill="#9E616A"/>
<path d="M366.436 183.443C367.059 182.801 367.533 182.03 367.825 181.185C368.117 180.34 368.22 179.442 368.127 178.553C368.033 177.664 367.745 176.806 367.284 176.04C366.822 175.274 366.198 174.619 365.455 174.12L371.021 153.115L360.296 156.715L356.654 176.109C355.896 177.41 355.643 178.943 355.943 180.418C356.243 181.893 357.074 183.207 358.28 184.111C359.486 185.015 360.982 185.446 362.485 185.323C363.988 185.2 365.394 184.531 366.436 183.443H366.436Z" fill="#9E616A"/>
<path d="M372.294 82.5978L369.992 82.1211L368.029 83.2057C368.029 83.2057 362.545 90.5016 362.545 97.1894C362.545 103.877 355.842 168.324 355.842 168.324L368.029 173.795L377.779 123.333L372.294 82.5978Z" fill="#E6E6E6"/>
<path d="M410.25 42.7397C410.25 42.7397 413.994 35.598 405.757 34.9488C405.757 34.9488 398.734 28.5929 391.576 33.7868C391.576 33.7868 387.672 33.7868 385.537 38.195C385.537 38.195 382.466 37.033 381.792 40.1427C381.792 40.1427 379.545 46.6352 381.792 52.4783C384.038 58.3215 384.785 58.9708 384.785 58.9708C384.785 58.9708 381.093 46.7202 390.08 46.071C399.067 45.4217 409.123 39.8181 409.872 46.9598C410.621 54.1014 411.748 55.8611 411.748 55.8611C411.748 55.8611 418.862 45.6613 410.25 42.7397Z" fill="#2F2E41"/>
<path d="M462.543 242.607C461.463 242.609 460.42 242.212 459.615 241.492L416.291 203.014C415.418 202.237 414.89 201.146 414.822 199.981C414.754 198.815 415.152 197.671 415.929 196.798L443.683 165.69C444.462 164.819 445.555 164.292 446.723 164.224C447.891 164.156 449.039 164.553 449.913 165.329L493.237 203.807C494.111 204.584 494.641 205.675 494.708 206.84C494.776 208.006 494.377 209.151 493.599 210.023L465.846 241.131C465.461 241.564 464.995 241.917 464.473 242.169C463.951 242.421 463.384 242.567 462.805 242.599C462.718 242.605 462.63 242.607 462.543 242.607Z" fill="white"/>
<path d="M462.543 242.89C461.393 242.892 460.283 242.469 459.427 241.704L416.103 203.226C415.174 202.399 414.611 201.238 414.539 199.997C414.467 198.757 414.891 197.538 415.718 196.609L443.471 165.502C444.3 164.575 445.464 164.014 446.707 163.942C447.95 163.87 449.171 164.292 450.102 165.117L493.426 203.596C494.356 204.422 494.92 205.583 494.992 206.824C495.064 208.065 494.639 209.283 493.811 210.212L466.058 241.319C465.649 241.78 465.152 242.156 464.597 242.424C464.041 242.692 463.438 242.848 462.822 242.882C462.729 242.887 462.636 242.89 462.543 242.89ZM446.981 165.065C446.478 165.064 445.981 165.169 445.522 165.374C445.063 165.579 444.653 165.879 444.319 166.254L416.565 197.362C415.938 198.067 415.616 198.991 415.671 199.932C415.726 200.872 416.152 201.753 416.857 202.38L460.181 240.858C460.53 241.169 460.938 241.408 461.379 241.561C461.821 241.714 462.289 241.779 462.756 241.752C463.223 241.725 463.68 241.606 464.101 241.403C464.522 241.2 464.899 240.915 465.21 240.567L492.964 209.459C493.592 208.755 493.914 207.831 493.859 206.89C493.805 205.949 493.377 205.068 492.672 204.441L449.348 165.963C448.696 165.383 447.854 165.063 446.981 165.065H446.981Z" fill="#3F3D56"/>
<path d="M478.255 213.146C477.787 213.147 477.335 212.976 476.986 212.665L442.979 182.461C442.79 182.295 442.637 182.093 442.527 181.868C442.417 181.642 442.352 181.397 442.337 181.147C442.322 180.897 442.357 180.646 442.439 180.409C442.522 180.172 442.65 179.954 442.817 179.767C442.984 179.579 443.187 179.427 443.413 179.318C443.639 179.209 443.885 179.145 444.136 179.131C444.387 179.117 444.638 179.152 444.875 179.235C445.112 179.318 445.331 179.447 445.518 179.614L479.526 209.819C479.815 210.075 480.019 210.414 480.111 210.789C480.203 211.165 480.178 211.559 480.04 211.92C479.903 212.281 479.658 212.591 479.339 212.81C479.02 213.03 478.642 213.147 478.255 213.146Z" fill="#6C63FF"/>
<path d="M471.767 220.417C471.3 220.417 470.848 220.246 470.499 219.935L436.491 189.731C436.304 189.565 436.151 189.363 436.042 189.138C435.933 188.913 435.869 188.668 435.855 188.418C435.84 188.169 435.875 187.919 435.958 187.682C436.04 187.446 436.168 187.228 436.335 187.041C436.502 186.854 436.704 186.702 436.929 186.593C437.155 186.484 437.4 186.421 437.65 186.406C437.901 186.392 438.151 186.427 438.388 186.509C438.625 186.591 438.843 186.719 439.031 186.885L473.038 217.089C473.328 217.346 473.532 217.685 473.624 218.06C473.716 218.435 473.691 218.83 473.553 219.19C473.415 219.551 473.171 219.862 472.852 220.081C472.533 220.3 472.155 220.417 471.767 220.417H471.767Z" fill="#6C63FF"/>
<path d="M465.281 227.688C464.813 227.689 464.362 227.517 464.012 227.206L430.005 197.002C429.817 196.836 429.664 196.634 429.555 196.409C429.445 196.184 429.381 195.939 429.367 195.689C429.352 195.439 429.387 195.189 429.469 194.952C429.551 194.716 429.68 194.498 429.847 194.311C430.014 194.124 430.216 193.971 430.442 193.862C430.668 193.753 430.913 193.69 431.163 193.676C431.414 193.661 431.665 193.696 431.902 193.779C432.139 193.861 432.357 193.989 432.544 194.156L466.552 224.36C466.841 224.617 467.045 224.956 467.137 225.331C467.229 225.706 467.205 226.1 467.067 226.461C466.929 226.822 466.685 227.133 466.366 227.352C466.047 227.571 465.669 227.688 465.281 227.688H465.281Z" fill="#6C63FF"/>
<path d="M426.39 184.683C425.953 183.902 425.694 183.036 425.629 182.144C425.565 181.253 425.697 180.358 426.017 179.523C426.336 178.688 426.835 177.933 427.479 177.312C428.123 176.69 428.895 176.217 429.742 175.925L429.779 154.199L439.215 160.43L437.733 180.106C438.13 181.558 437.979 183.105 437.309 184.453C436.639 185.801 435.497 186.858 434.099 187.422C432.7 187.986 431.143 188.019 429.722 187.514C428.302 187.009 427.116 186.002 426.39 184.683H426.39Z" fill="#9E616A"/>
<path d="M427.262 88.5514L431.477 84.4974L434.574 86.7275C434.574 86.7275 437.621 90.3754 440.058 101.319C442.496 112.263 440.058 172.453 440.058 172.453L426.652 170.629L428.48 139.014L422.996 112.263L427.262 88.5514Z" fill="#E6E6E6"/>
<path d="M433.487 85.4863L419.284 78.7174L409.642 69.7939L392.059 69.6626L386.386 77.0196L371.412 82.0948L373.908 133.612L372.206 137.574C372.206 137.574 373.392 138.642 373.933 139.24C374.475 139.838 373.185 144.841 373.185 144.841L372.458 150.284L374.475 151.722L371.852 154.813L371.201 159.686C371.201 159.686 416.983 148.332 425.634 167.14C426.091 168.134 424.965 158.422 424.965 158.422L423.84 151.312L424.956 144.931L426.658 143.233L423.804 140.386L425.634 126.875L433.487 85.4863Z" fill="#3F3D56"/>
<path d="M111.405 199.697C111.758 198.804 111.91 197.845 111.85 196.887C111.791 195.929 111.522 194.996 111.062 194.153C110.602 193.31 109.963 192.578 109.189 192.008C108.415 191.438 107.525 191.045 106.582 190.856L103.427 167.741L94.2793 175.719L98.6777 196.446C98.4638 198.048 98.8462 199.672 99.7524 201.011C100.659 202.35 102.026 203.311 103.594 203.712C105.163 204.112 106.825 203.925 108.264 203.185C109.704 202.445 110.821 201.204 111.405 199.697V199.697Z" fill="#FFB8B8"/>
<path d="M75.5659 97.2991L73.0864 97.773L71.5877 99.6556C71.5877 99.6556 69.1631 109.144 71.9251 115.775C74.6871 122.406 94.6565 189.061 94.6565 189.061L109 189.476L97.8265 135.433L75.5659 97.2991Z" fill="#3F3D56"/>
<path d="M132.111 196.306C131.45 195.609 130.951 194.775 130.648 193.864C130.345 192.953 130.246 191.987 130.358 191.034C130.469 190.081 130.789 189.164 131.294 188.347C131.8 187.531 132.479 186.835 133.283 186.308L127.572 163.687L139.042 167.687L142.706 188.555C143.503 189.962 143.755 191.611 143.415 193.191C143.074 194.77 142.165 196.17 140.859 197.126C139.553 198.081 137.941 198.525 136.329 198.374C134.717 198.223 133.216 197.487 132.111 196.306Z" fill="#FFB8B8"/>
<path d="M127.1 87.9597L129.578 87.477L131.672 88.6663C131.672 88.6663 137.468 96.5687 137.383 103.749C137.298 110.929 143.677 180.207 143.677 180.207L130.523 185.928L120.695 131.625L127.1 87.9597Z" fill="#3F3D56"/>
</g>
<defs>
<clipPath id="clip0_71_393">
<rect width="495" height="334" fill="white"/>
</clipPath>
</defs>
</svg>
