<svg width="617" height="279" viewBox="0 0 617 279" fill="none" xmlns="http://www.w3.org/2000/svg">
<path d="M203.191 279C184.574 279 165.984 278.699 147.422 278.098C120.9 277.239 93.4738 276.351 67.9826 263.597C50.1505 254.677 34.3573 240.365 22.311 222.207C14.2594 209.9 8.3557 196.548 4.80712 182.621C-1.81235 157.265 -1.58688 130.845 5.46456 105.584C7.93566 96.9227 11.3422 88.501 15.6354 80.4396C34.2251 45.7151 68.1313 22.4055 108.66 16.4881C108.995 16.4489 109.334 16.4424 109.67 16.4686C109.852 16.4774 110.034 16.4869 110.219 16.4799L110.457 16.4115C111.069 16.2199 111.697 16.0745 112.335 15.9769C174.841 7.58306 240.92 24.5668 303.422 65.0908C351.748 96.4281 415.795 113.303 499.221 116.679L500.405 116.735C523.629 117.938 546.094 126.575 565.373 141.713C584.401 156.653 598.689 176.587 606.69 199.36C607.674 202.136 608.576 205.026 609.37 207.949C610.11 210.665 610.058 213.508 609.219 216.201C608.379 218.894 606.782 221.345 604.581 223.316V223.321L604.373 223.514C603.873 223.962 603.347 224.393 602.809 224.793L602.176 225.263C596.845 229.225 592.634 232.355 587.594 234.785C584.233 236.395 580.658 237.613 576.956 238.408C556.626 242.879 535.981 247.024 515.593 250.729C476 257.93 435.363 263.871 394.812 268.385C331.239 275.456 267.245 279.001 203.191 279ZM109.196 17.6985C109.071 17.6974 108.947 17.7051 108.824 17.7213C68.6735 23.5834 35.0882 46.6642 16.6829 81.045C12.4321 89.0264 9.05921 97.3647 6.61269 105.94C-0.374502 130.978 -0.597164 157.162 5.96342 182.293C9.47727 196.087 15.3238 209.311 23.2976 221.501C35.226 239.48 50.8576 253.649 68.5029 262.475C93.7652 275.114 121.062 275.999 147.46 276.853C230.023 279.514 312.69 276.269 394.684 267.147C435.209 262.636 475.819 256.7 515.387 249.503C535.76 245.801 556.391 241.659 576.708 237.19C580.321 236.415 583.809 235.227 587.09 233.656C592.028 231.275 596.199 228.175 601.479 224.251L602.112 223.781C602.574 223.437 603.028 223.068 603.463 222.685L603.587 222.567C607.927 218.622 609.614 213.417 608.217 208.287V208.287C607.431 205.395 606.539 202.536 605.565 199.788C589.22 153.268 546.936 120.392 500.348 117.978L499.17 117.923C461.062 116.38 427.715 112.107 397.227 104.859C360.831 96.2062 329.057 83.1813 302.787 66.1465C240.523 25.7778 174.721 8.85728 112.487 17.2113C111.906 17.3018 111.334 17.4356 110.777 17.6113L110.347 17.7198C110.103 17.7296 109.859 17.727 109.615 17.7119C109.471 17.7052 109.332 17.6985 109.196 17.6985H109.196Z" fill="#F0F0F0"/>
<path d="M192.725 90.9015C191.002 89.41 189.239 81.0919 187.038 80.2475C188.683 83.5265 187.489 84.3947 187.48 87.9934C187.501 90.0368 187.236 92.0745 186.693 94.0583H149.418V67.8178C149.418 65.46 149.933 63.1253 150.933 60.947C151.933 58.7687 153.399 56.7894 155.247 55.1222C157.096 53.455 159.29 52.1325 161.705 51.2303C164.12 50.328 166.708 49.8637 169.322 49.8638C170.319 49.8813 171.311 50.0122 172.272 50.2533C175.476 51.0336 178.396 52.5601 180.739 54.6798C183.083 56.7994 184.767 59.4377 185.623 62.3298C188.465 71.6988 192.984 87.2942 192.725 90.9015Z" fill="#2F2E41"/>
<path d="M151.606 123.182L151.625 102.729L138.296 103.804L143 116.703L140.799 149.127C139.731 149.343 138.756 149.835 137.993 150.542C137.23 151.249 136.711 152.142 136.5 153.11C136.289 154.079 136.396 155.082 136.806 155.997C137.216 156.912 137.913 157.7 138.811 158.264C139.708 158.828 140.769 159.144 141.863 159.174C142.957 159.204 144.036 158.946 144.97 158.432C145.905 157.918 146.653 157.17 147.124 156.279C147.595 155.388 147.768 154.393 147.622 153.414L151.606 123.182Z" fill="#FFB6B6"/>
<path d="M177.835 269.339L183.22 269.339L185.782 250.604H177.834L177.835 269.339Z" fill="#FFB6B6"/>
<path d="M176.013 266.943L184.525 266.485V269.775L192.618 274.816C193.017 275.065 193.318 275.423 193.477 275.837C193.635 276.251 193.643 276.7 193.498 277.119C193.354 277.537 193.065 277.903 192.673 278.162C192.282 278.422 191.809 278.562 191.323 278.562H181.189L179.442 275.308L178.76 278.562H174.939L176.013 266.943Z" fill="#2F2E41"/>
<path d="M146.7 269.339L152.085 269.339L154.646 250.604H146.699L146.7 269.339Z" fill="#FFB6B6"/>
<path d="M144.876 266.943L153.388 266.485V269.775L161.481 274.816C161.881 275.065 162.182 275.423 162.34 275.837C162.499 276.251 162.506 276.7 162.361 277.119C162.217 277.537 161.928 277.903 161.537 278.162C161.145 278.422 160.672 278.562 160.186 278.562H150.052L148.306 275.308L147.624 278.562H143.803L144.876 266.943Z" fill="#2F2E41"/>
<path d="M173.04 80.6421L161.886 80.8394L154.012 88.3367L147.699 89.1718C144.843 89.5496 142.218 90.8001 140.262 92.7142C138.305 94.6284 137.137 97.0902 136.951 99.6882L138.045 105.107H144.606L148.402 125.211C146.926 128.604 146.826 131.282 149.856 132.334L159.261 148.315L187.039 137.069C188.447 134.884 188.899 132.69 187.459 130.556L189.445 99.7799H196.122C196.122 94.0237 193.963 89.1711 187.622 88.5305C185.103 88.2847 182.573 88.1541 180.04 88.1394L173.04 80.6421Z" fill="#E6E6E6"/>
<path d="M187.039 137.069C187.039 137.069 159.918 141.41 149.857 132.334C149.857 132.334 148.835 133.898 147.296 136.492C146.853 137.238 145.998 137.744 145.482 138.647C145.013 139.469 143.806 140.478 143.295 141.41C142.884 142.159 143.543 143.139 143.115 143.948C137.963 153.697 131.943 167.448 133.234 176.528C134.066 182.384 135.785 196.01 137.595 210.645C137.737 211.788 136.591 213.257 136.733 214.409C136.867 215.496 138.289 216.266 138.423 217.356C138.512 218.079 137.519 218.817 137.608 219.539C137.705 220.332 138.885 221.109 138.982 221.898C141.462 242.106 143.732 260.972 143.732 260.972H156.418L158.812 217.883L156.856 202.177L161.449 170.412L167.792 200.599L168.608 217.588L175.311 261.761H187.039V218.999L187.914 216.777L187.039 213.928L187.914 210.858L187.039 207.515V137.069Z" fill="#2F2E41"/>
<path d="M176.465 74.807C174.737 76.8775 172.279 78.3555 169.495 78.9974C166.712 79.6394 163.769 79.4072 161.151 78.3389C158.534 77.2707 156.397 75.4301 155.094 73.1204C153.791 70.8107 153.399 68.1695 153.982 65.6318C154.565 63.0942 156.089 60.8113 158.303 59.1593C160.517 57.5073 163.288 56.5846 166.161 56.5431C169.033 56.5016 171.836 57.3439 174.107 58.9312C176.378 60.5185 177.983 62.7561 178.656 65.2757C178.692 65.4124 178.723 65.5483 178.752 65.6894C179.108 67.2687 179.088 68.8979 178.693 70.4697C178.299 72.0414 177.539 73.5197 176.465 74.807Z" fill="#FFB6B6"/>
<path d="M173.828 68.2992C173.56 67.0848 172.881 65.9752 171.886 65.1227C171.984 66.2864 171.805 67.4556 171.361 68.5517C168.035 68.8174 164.695 68.2205 161.733 66.8313C159.502 65.466 156.663 65.5844 153.355 66.8313C153.355 65.3803 153.672 63.9435 154.287 62.603C154.903 61.2624 155.805 60.0443 156.943 59.0183C158.08 57.9923 159.43 57.1785 160.916 56.6233C162.403 56.0681 163.995 55.7825 165.604 55.7826H167.791C171.04 55.7832 174.155 56.9474 176.452 59.0193C178.748 61.0912 180.039 63.9012 180.04 66.8313C178.021 67.4844 175.942 67.9756 173.828 68.2992Z" fill="#2F2E41"/>
<path d="M78.1374 209.118C97.5713 209.118 113.326 194.907 113.326 177.377C113.326 159.847 97.5713 145.636 78.1374 145.636C58.7035 145.636 42.9492 159.847 42.9492 177.377C42.9492 194.907 58.7035 209.118 78.1374 209.118Z" fill="#F0F0F0"/>
<path d="M302.376 63.4823C321.81 63.4823 337.564 49.2713 337.564 31.7412C337.564 14.211 321.81 0 302.376 0C282.942 0 267.188 14.211 267.188 31.7412C267.188 49.2713 282.942 63.4823 302.376 63.4823Z" fill="#F0F0F0"/>
<path d="M581.811 214.097C601.245 214.097 616.999 199.886 616.999 182.356C616.999 164.826 601.245 150.615 581.811 150.615C562.377 150.615 546.623 164.826 546.623 182.356C546.623 199.886 562.377 214.097 581.811 214.097Z" fill="#F0F0F0"/>
<path d="M365.853 35.2027V107.178C365.853 108.673 365.199 110.108 364.033 111.17C362.868 112.233 361.284 112.838 359.627 112.854C359.604 112.856 359.581 112.857 359.558 112.856H350.271C342.84 112.856 335.714 110.194 330.46 105.454C325.206 100.715 322.254 94.2864 322.254 87.5837V35.2027C322.254 33.6967 322.917 32.2525 324.098 31.1876C325.278 30.1227 326.879 29.5245 328.549 29.5245H332.312C330.568 34.1118 354.229 36.0431 355.528 29.5245H359.558C361.227 29.5245 362.828 30.1228 364.009 31.1876C365.189 32.2525 365.853 33.6967 365.853 35.2027Z" fill="#6C63FF"/>
<path d="M338.293 24.1424C338.293 23.9451 338.38 23.756 338.535 23.6165C338.69 23.477 338.899 23.3985 339.118 23.3983H344.728C344.946 23.3989 345.155 23.4775 345.309 23.617C345.464 23.7565 345.55 23.9454 345.55 24.1424C345.55 24.3394 345.464 24.5284 345.309 24.6679C345.155 24.8074 344.946 24.886 344.728 24.8866H339.118C338.899 24.8863 338.69 24.8079 338.535 24.6684C338.38 24.5289 338.293 24.3397 338.293 24.1424Z" fill="#3F3D56"/>
<path d="M361.486 121.986H326.011C323.259 121.983 320.62 120.995 318.674 119.24C316.728 117.484 315.633 115.104 315.63 112.621V62.3078C315.435 62.1816 315.276 62.0154 315.167 61.8228C315.058 61.6303 315.001 61.417 315.001 61.2007V56.1406C315.001 55.9243 315.058 55.7111 315.167 55.5186C315.276 55.3261 315.435 55.1599 315.63 55.0338V53.6757C315.435 53.5496 315.276 53.3834 315.167 53.1909C315.058 52.9984 315.001 52.7852 315.001 52.5689V47.5084C315.001 47.2922 315.058 47.0789 315.167 46.8864C315.276 46.694 315.435 46.5278 315.63 46.4017V43.9471C315.389 43.8306 315.188 43.6573 315.048 43.4457C314.909 43.2342 314.835 42.9924 314.836 42.7461V37.686C314.835 37.4396 314.909 37.1978 315.048 36.9862C315.188 36.7746 315.389 36.6012 315.63 36.4847V29.7589C315.633 27.2762 316.728 24.896 318.674 23.1405C320.62 21.3849 323.259 20.3975 326.011 20.3947H361.486C364.239 20.3975 366.877 21.385 368.823 23.1405C370.77 24.896 371.864 27.2762 371.867 29.7589V44.4197C372.054 44.5252 372.209 44.6718 372.315 44.8458C372.422 45.0197 372.478 45.2154 372.479 45.4143V55.063C372.478 55.2619 372.422 55.4576 372.315 55.6316C372.209 55.8057 372.054 55.9523 371.867 56.0579V112.621C371.864 115.104 370.77 117.484 368.823 119.24C366.877 120.995 364.239 121.983 361.486 121.986ZM326.011 21.6394C323.625 21.6418 321.337 22.4981 319.649 24.0202C317.962 25.5424 317.012 27.6062 317.01 29.7589V37.5435L316.346 37.5666C316.311 37.5677 316.279 37.5807 316.254 37.6029C316.23 37.6251 316.216 37.6548 316.216 37.686V42.7461C316.217 42.7772 316.23 42.8069 316.255 42.8291C316.279 42.8513 316.311 42.8643 316.346 42.8655L317.01 42.8883V47.2756L316.485 47.3923C316.456 47.3986 316.43 47.4135 316.411 47.4345C316.392 47.4555 316.382 47.4815 316.381 47.5084V52.5689C316.382 52.5958 316.392 52.6218 316.411 52.6428C316.43 52.6638 316.456 52.6786 316.485 52.685L317.01 52.8017V55.9077L316.485 56.0244C316.456 56.0308 316.43 56.0456 316.411 56.0666C316.392 56.0876 316.382 56.1136 316.381 56.1405V61.2007C316.382 61.2277 316.392 61.2538 316.411 61.2748C316.43 61.2959 316.456 61.3107 316.485 61.3171L317.01 61.4338V112.621C317.012 114.774 317.962 116.838 319.649 118.36C321.337 119.882 323.625 120.739 326.011 120.741H361.486C363.873 120.738 366.161 119.882 367.848 118.36C369.536 116.838 370.485 114.774 370.487 112.621V54.9921H371.099V45.4854H370.487V29.7589C370.485 27.6062 369.536 25.5424 367.848 24.0203C366.161 22.4981 363.873 21.6419 361.486 21.6394L326.011 21.6394Z" fill="#3F3D56"/>
<path d="M347.864 24.8866C348.32 24.8866 348.689 24.5534 348.689 24.1424C348.689 23.7314 348.32 23.3983 347.864 23.3983C347.408 23.3983 347.039 23.7314 347.039 24.1424C347.039 24.5534 347.408 24.8866 347.864 24.8866Z" fill="#3F3D56"/>
<path d="M168.406 168.292H76.0974C74.7865 168.289 73.5303 167.818 72.6033 166.982C71.6763 166.146 71.1539 165.013 71.1504 163.83V123.258C71.1538 122.076 71.6759 120.943 72.6028 120.107C73.5297 119.27 74.7858 118.799 76.0967 118.796H168.405C169.716 118.799 170.972 119.27 171.899 120.106C172.826 120.942 173.348 122.075 173.352 123.258V163.83C173.349 165.012 172.826 166.145 171.9 166.982C170.973 167.818 169.717 168.289 168.406 168.292Z" fill="white"/>
<path d="M168.406 168.292H76.0974C74.7865 168.289 73.5303 167.818 72.6033 166.982C71.6763 166.146 71.1539 165.013 71.1504 163.83V123.258C71.1538 122.076 71.6759 120.943 72.6028 120.107C73.5297 119.27 74.7858 118.799 76.0967 118.796H168.405C169.716 118.799 170.972 119.27 171.899 120.106C172.826 120.942 173.348 122.075 173.352 123.258V163.83C173.349 165.012 172.826 166.145 171.9 166.982C170.973 167.818 169.717 168.289 168.406 168.292ZM76.0974 120.041C75.1521 120.043 74.2463 120.383 73.5779 120.986C72.9096 121.589 72.5329 122.406 72.5303 123.259V163.83C72.5331 164.683 72.9098 165.5 73.5783 166.103C74.2468 166.705 75.1527 167.045 76.0981 167.047H168.404C169.35 167.045 170.256 166.705 170.924 166.102C171.593 165.499 171.969 164.682 171.972 163.829V123.258C171.969 122.406 171.592 121.589 170.924 120.986C170.256 120.383 169.35 120.043 168.404 120.041L76.0974 120.041Z" fill="#3F3D56"/>
<path d="M127.201 162.296C108.995 162.296 90.0122 162.139 82.9294 162.038C81.9976 162.02 81.1101 161.675 80.4566 161.076C79.8031 160.476 79.4352 159.67 79.4316 158.829V125.245C79.432 124.944 79.5645 124.655 79.8002 124.442C80.036 124.229 80.3557 124.108 80.6894 124.107H163.813C164.147 124.108 164.467 124.227 164.703 124.44C164.94 124.652 165.073 124.941 165.074 125.242V148.028C165.059 151.748 163.428 155.314 160.531 157.961C157.634 160.608 153.703 162.126 149.58 162.188C142.979 162.266 135.162 162.296 127.201 162.296Z" fill="#6C63FF"/>
<path d="M158.879 145.935H83.77C83.141 145.933 82.5279 145.757 82.0139 145.43C81.4999 145.103 81.1099 144.641 80.8969 144.108L72.3956 122.594C72.2318 122.179 72.1808 121.735 72.2468 121.299C72.3128 120.862 72.4939 120.447 72.7749 120.086C73.056 119.726 73.4288 119.432 73.8619 119.229C74.2951 119.026 74.776 118.919 75.2643 118.918L169.149 118.8C169.596 118.8 170.037 118.888 170.441 119.058C170.846 119.228 171.204 119.476 171.491 119.784C171.778 120.093 171.986 120.454 172.101 120.843C172.216 121.232 172.235 121.639 172.157 122.035L172.23 122.063L171.96 122.63L171.957 122.636L161.68 144.267C161.446 144.762 161.056 145.184 160.558 145.481C160.06 145.777 159.476 145.935 158.879 145.935ZM169.154 120.045L75.267 120.163C74.9995 120.163 74.736 120.222 74.4987 120.333C74.2614 120.444 74.0572 120.605 73.9032 120.803C73.7493 121 73.65 121.228 73.6138 121.467C73.5777 121.706 73.6056 121.949 73.6954 122.176L82.1963 143.689C82.3131 143.981 82.5269 144.234 82.8086 144.413C83.0903 144.592 83.4263 144.689 83.7709 144.69H158.879C159.206 144.69 159.525 144.604 159.798 144.441C160.07 144.279 160.284 144.048 160.412 143.777L170.689 122.146L171.195 122.341L170.689 122.146C170.798 121.916 170.842 121.666 170.818 121.418C170.793 121.17 170.701 120.93 170.548 120.722C170.396 120.514 170.189 120.343 169.946 120.225C169.702 120.107 169.43 120.045 169.154 120.045Z" fill="#3F3D56"/>
<path d="M122.112 150.618C125.36 150.618 127.993 148.242 127.993 145.312C127.993 142.382 125.36 140.007 122.112 140.007C118.864 140.007 116.23 142.382 116.23 145.312C116.23 148.242 118.864 150.618 122.112 150.618Z" fill="white"/>
<path d="M344.28 104.562C347.528 104.562 350.161 102.187 350.161 99.2566C350.161 96.3267 347.528 93.9515 344.28 93.9515C341.032 93.9515 338.398 96.3267 338.398 99.2566C338.398 102.187 341.032 104.562 344.28 104.562Z" fill="white"/>
<path d="M566.723 176.207L551.013 162.216C550.248 161.53 549.34 160.986 548.342 160.616C547.344 160.247 546.275 160.059 545.196 160.063H545.141C544.054 160.065 542.978 160.263 541.976 160.643C540.974 161.023 540.066 161.579 539.304 162.278C535.791 165.485 533.793 169.795 533.73 174.303C533.667 178.811 535.544 183.166 538.966 186.451C539.131 186.613 539.304 186.769 539.476 186.924C540.432 187.781 541.487 188.543 542.623 189.196C545.728 191.006 549.35 191.964 553.048 191.953H553.165C555.703 191.945 558.214 191.484 560.553 190.595C562.892 189.706 565.013 188.408 566.792 186.775C568.334 185.364 569.192 183.459 569.179 181.478C569.166 179.497 568.283 177.602 566.723 176.207ZM565.812 185.897C562.895 188.548 559.055 190.211 554.938 190.605C550.82 191 546.678 190.102 543.209 188.063C542.217 187.471 541.29 186.794 540.442 186.041C537.057 183.025 535.139 178.92 535.109 174.628C535.079 170.336 536.941 166.21 540.284 163.156C540.919 162.572 541.677 162.107 542.513 161.79C543.35 161.473 544.248 161.309 545.155 161.307H545.196C546.094 161.305 546.985 161.461 547.816 161.769C548.647 162.076 549.402 162.529 550.04 163.1L565.75 177.097C567.051 178.257 567.788 179.836 567.799 181.486C567.811 183.136 567.096 184.722 565.812 185.897Z" fill="#3F3D56"/>
<path d="M515.175 130.288L499.465 116.291C497.918 114.907 495.827 114.133 493.648 114.137H493.6C492.511 114.141 491.434 114.34 490.431 114.721C489.428 115.102 488.519 115.659 487.756 116.359C484.852 119.02 482.969 122.449 482.383 126.145C481.797 129.841 482.538 133.61 484.499 136.898L484.506 136.904C485.315 138.249 486.32 139.49 487.494 140.595C487.625 140.732 487.777 140.868 487.928 141.005C491.536 144.236 496.417 146.044 501.5 146.034H501.624C504.163 146.025 506.674 145.562 509.013 144.672C511.351 143.782 513.472 142.483 515.251 140.85C516.015 140.152 516.619 139.325 517.028 138.416C517.438 137.508 517.645 136.536 517.638 135.555C517.631 134.574 517.41 133.604 516.987 132.7C516.565 131.797 515.949 130.977 515.175 130.288V130.288ZM514.264 139.979C512.613 141.494 510.645 142.699 508.474 143.525C506.304 144.351 503.973 144.781 501.617 144.789H501.5C497.962 144.788 494.503 143.843 491.559 142.074C488.615 140.304 486.317 137.789 484.953 134.844C483.59 131.899 483.222 128.656 483.896 125.524C484.57 122.391 486.257 119.508 488.742 117.237C490.029 116.064 491.779 115.399 493.608 115.389C495.437 115.378 497.196 116.023 498.499 117.181L514.209 131.172C515.509 132.334 516.245 133.914 516.255 135.565C516.265 137.216 515.549 138.803 514.264 139.979L514.264 139.979Z" fill="#3F3D56"/>
<path d="M567.727 180.606L550.407 165.175C549.271 164.165 547.737 163.603 546.143 163.612C544.548 163.621 543.023 164.2 541.901 165.222C540.498 166.501 539.388 168.017 538.634 169.683C537.881 171.349 537.499 173.133 537.51 174.932C537.521 176.732 537.926 178.511 538.7 180.17C539.474 181.828 540.603 183.332 542.022 184.597C543.442 185.861 545.123 186.861 546.971 187.539C548.819 188.216 550.797 188.559 552.792 188.547C554.786 188.535 556.759 188.168 558.596 187.468C560.434 186.767 562.1 185.747 563.501 184.466L567.727 180.606Z" fill="#6C63FF"/>
<path d="M516.182 134.684L498.862 119.253C497.726 118.244 496.193 117.682 494.598 117.691C493.003 117.7 491.478 118.279 490.356 119.301C488.953 120.58 487.843 122.096 487.089 123.762C486.336 125.428 485.954 127.211 485.965 129.011C485.976 130.81 486.381 132.59 487.155 134.248C487.929 135.906 489.058 137.411 490.478 138.675C491.897 139.94 493.578 140.939 495.426 141.617C497.274 142.295 499.252 142.638 501.247 142.625C503.241 142.613 505.214 142.247 507.051 141.546C508.889 140.846 510.555 139.826 511.956 138.544L516.182 134.684Z" fill="#6C63FF"/>
<path d="M548.693 190.217L548.279 191.2C546.333 190.534 544.447 189.866 542.621 189.196C510.276 177.29 494.834 163.355 484.505 136.904L484.499 136.898C484.009 135.653 483.533 134.379 483.07 133.076L484.16 132.759C484.525 134.012 485.058 135.22 485.747 136.356C486.313 137.806 486.895 139.219 487.493 140.595C497.201 162.919 511.518 175.678 538.964 186.451C540.344 186.993 541.759 187.53 543.208 188.063C544.89 189.052 546.744 189.78 548.693 190.217Z" fill="#3F3D56"/>
<path d="M499.177 144.901L498.207 145.787L534.042 177.714L535.012 176.828L499.177 144.901Z" fill="#3F3D56"/>
<path d="M195.788 118.447L195.807 97.9942L182.478 99.0686L187.182 111.968L170.107 135.316C169.04 135.532 168.065 136.024 167.301 136.731C166.538 137.439 166.019 138.331 165.809 139.3C165.598 140.268 165.704 141.271 166.114 142.186C166.525 143.101 167.221 143.889 168.119 144.453C169.017 145.017 170.078 145.334 171.171 145.363C172.265 145.393 173.345 145.136 174.279 144.621C175.213 144.107 175.961 143.359 176.432 142.468C176.903 141.577 177.076 140.582 176.931 139.603L195.788 118.447Z" fill="#FFB6B6"/>
</svg>
