<svg width="38" height="38" viewBox="0 0 38 38" fill="none" xmlns="http://www.w3.org/2000/svg">
<path d="M19.0074 10.4649C14.2871 10.4649 10.4797 14.2723 10.4797 18.9926C10.4797 23.7129 14.2871 27.5203 19.0074 27.5203C23.7277 27.5203 27.5352 23.7129 27.5352 18.9926C27.5352 14.2723 23.7277 10.4649 19.0074 10.4649ZM19.0074 24.5367C15.957 24.5367 13.4633 22.0504 13.4633 18.9926C13.4633 15.9348 15.9496 13.4485 19.0074 13.4485C22.0652 13.4485 24.5516 15.9348 24.5516 18.9926C24.5516 22.0504 22.0578 24.5367 19.0074 24.5367ZM29.8731 10.116C29.8731 11.2219 28.9824 12.1051 27.884 12.1051C26.7781 12.1051 25.8949 11.2145 25.8949 10.116C25.8949 9.0176 26.7856 8.12697 27.884 8.12697C28.9824 8.12697 29.8731 9.0176 29.8731 10.116ZM35.5211 12.1348C35.3949 9.47033 34.7863 7.11018 32.8344 5.16564C30.8899 3.22111 28.5297 2.61252 25.8652 2.47892C23.1192 2.32307 14.8883 2.32307 12.1422 2.47892C9.48517 2.6051 7.12501 3.21369 5.17306 5.15822C3.22111 7.10275 2.61993 9.46291 2.48634 12.1274C2.33048 14.8735 2.33048 23.1043 2.48634 25.8504C2.61251 28.5149 3.22111 30.875 5.17306 32.8196C7.12501 34.7641 9.47775 35.3727 12.1422 35.5063C14.8883 35.6621 23.1192 35.6621 25.8652 35.5063C28.5297 35.3801 30.8899 34.7715 32.8344 32.8196C34.7789 30.875 35.3875 28.5149 35.5211 25.8504C35.677 23.1043 35.677 14.8809 35.5211 12.1348ZM31.9734 28.7969C31.3945 30.2516 30.2738 31.3723 28.8117 31.9586C26.6223 32.827 21.427 32.6266 19.0074 32.6266C16.5879 32.6266 11.3852 32.8196 9.20314 31.9586C7.74845 31.3797 6.62775 30.259 6.04142 28.7969C5.17306 26.6074 5.37345 21.4121 5.37345 18.9926C5.37345 16.5731 5.18048 11.3703 6.04142 9.1883C6.62033 7.73361 7.74103 6.61291 9.20314 6.02658C11.3926 5.15822 16.5879 5.35861 19.0074 5.35861C21.427 5.35861 26.6297 5.16564 28.8117 6.02658C30.2664 6.60549 31.3871 7.72619 31.9734 9.1883C32.8418 11.3778 32.6414 16.5731 32.6414 18.9926C32.6414 21.4121 32.8418 26.6149 31.9734 28.7969Z" fill="#3E9FF7"/>
</svg>
