<svg width="38" height="38" viewBox="0 0 38 38" fill="none" xmlns="http://www.w3.org/2000/svg">
<path d="M30.6449 7.20664C27.5352 4.08945 23.3937 2.375 18.9926 2.375C9.9082 2.375 2.51602 9.76719 2.51602 18.8516C2.51602 21.7535 3.27305 24.5887 4.71289 27.0898L2.375 35.625L11.1105 33.3316C13.5152 34.6453 16.2242 35.3355 18.9852 35.3355H18.9926C28.0695 35.3355 35.625 27.9434 35.625 18.859C35.625 14.4578 33.7547 10.3238 30.6449 7.20664ZM18.9926 32.5598C16.5285 32.5598 14.1164 31.8992 12.016 30.6523L11.5188 30.3555L6.33828 31.7137L7.71875 26.6594L7.39219 26.1398C6.01914 23.9578 5.29922 21.4418 5.29922 18.8516C5.29922 11.3035 11.4445 5.1582 19 5.1582C22.659 5.1582 26.0953 6.5832 28.6781 9.17344C31.2609 11.7637 32.8492 15.2 32.8418 18.859C32.8418 26.4145 26.5406 32.5598 18.9926 32.5598ZM26.5035 22.3027C26.0953 22.0949 24.0691 21.1004 23.6906 20.9668C23.3121 20.8258 23.0375 20.759 22.7629 21.1746C22.4883 21.5902 21.7016 22.5105 21.4566 22.7926C21.2191 23.0672 20.9742 23.1043 20.566 22.8965C18.1465 21.6867 16.5582 20.7367 14.9625 17.998C14.5395 17.2707 15.3855 17.3227 16.1723 15.7492C16.3059 15.4746 16.2391 15.2371 16.1352 15.0293C16.0312 14.8215 15.2074 12.7953 14.866 11.9715C14.532 11.1699 14.1906 11.2812 13.9383 11.2664C13.7008 11.2516 13.4262 11.2516 13.1516 11.2516C12.877 11.2516 12.4316 11.3555 12.0531 11.7637C11.6746 12.1793 10.6133 13.1738 10.6133 15.2C10.6133 17.2262 12.0902 19.1855 12.2906 19.4602C12.4984 19.7348 15.1926 23.891 19.3266 25.6797C21.9391 26.8078 22.9633 26.9043 24.2695 26.7113C25.0637 26.5926 26.7039 25.7168 27.0453 24.752C27.3867 23.7871 27.3867 22.9633 27.2828 22.7926C27.1863 22.607 26.9117 22.5031 26.5035 22.3027Z" fill="#3E9FF7"/>
</svg>
